<svg width="2560" height="3758" viewBox="0 0 2560 3758" fill="none" xmlns="http://www.w3.org/2000/svg">
<path fill-rule="evenodd" clip-rule="evenodd" d="M-389.056 2825.95C-468.169 2864.68 -521.314 2940.6 -527.166 3028.49C-565.477 3603.86 -647.789 5740.71 269.577 5460.36C1097.87 5207.23 2769.48 3588.98 3457.76 2896.7C3595.17 2758.48 3527.42 2525.96 3337.98 2480.19L1404.14 2012.96C1346.82 1999.11 1286.46 2005.72 1233.49 2031.65L-389.056 2825.95Z" fill="url(#paint0_linear_0_85)"/>
<mask id="mask0_0_85" style="mask-type:alpha" maskUnits="userSpaceOnUse" x="-548" y="2005" width="4079" height="3481">
<path fill-rule="evenodd" clip-rule="evenodd" d="M-389.056 2825.95C-468.169 2864.68 -521.314 2940.6 -527.166 3028.49C-565.477 3603.86 -647.789 5740.71 269.577 5460.36C1097.87 5207.23 2769.48 3588.98 3457.76 2896.7C3595.17 2758.48 3527.42 2525.96 3337.98 2480.19L1404.14 2012.96C1346.82 1999.11 1286.46 2005.72 1233.49 2031.65L-389.056 2825.95Z" fill="white"/>
</mask>
<g mask="url(#mask0_0_85)">
<rect x="3504.73" y="3440.08" width="3395" height="2548" transform="rotate(158 3504.73 3440.08)" fill="black" fill-opacity="0.2"/>
</g>
<defs>
<linearGradient id="paint0_linear_0_85" x1="553.929" y1="2228.27" x2="2318.67" y2="971.194" gradientUnits="userSpaceOnUse">
<stop stop-color="#1C1C93"/>
<stop offset="1" stop-color="#FFB74A"/>
</linearGradient>
</defs>
</svg>
